<svg width="485" height="484" viewBox="0 0 485 484" fill="none" xmlns="http://www.w3.org/2000/svg">
<path d="M580.142 421.046C574.65 421.517 569.124 421.444 563.647 420.826C503.431 414.177 421.432 416.068 354.588 457.429C262.144 514.62 117.267 465.659 53.3592 439.023C4.52898 418.679 -20.821 368.85 -5.59435 322.078C-5.37998 321.418 -5.15965 320.758 -4.92741 320.098C4.65403 292.302 23.5668 270.548 46.9874 259.017C67.4008 248.967 97.2051 227.98 110.467 187.655C115.945 171.003 123.46 155.339 133.22 141.685C159.356 105.118 214.07 50.6626 308.169 51.0016C324.668 51.0814 341.043 53.8494 356.648 59.1964C391.026 70.8939 422.075 94.6754 445.751 127.645C460.859 148.673 483.5 168.22 515.912 169.814C560.895 172.038 603.824 192.953 636.028 230.175C636.957 231.245 637.874 232.322 638.792 233.41C696.131 301.627 656.305 414.397 580.142 421.046Z" fill="#1A84E3" fill-opacity="0.984594"/>
<g opacity="0.7">
<circle cx="154.477" cy="406.389" r="8.08965" fill="url(#paint0_linear_0:1577)"/>
</g>
<circle opacity="0.2" cx="155" cy="407" r="8" fill="black"/>
<circle cx="111" cy="246" r="3" fill="white"/>
<circle cx="327" cy="423" r="3" fill="white"/>
<circle cx="199.5" cy="438.5" r="1.5" fill="white"/>
<circle cx="477.5" cy="203.5" r="1.5" fill="white"/>
<circle cx="164" cy="147" r="3" fill="white"/>
<path d="M81 352.495H78.0924V350H76.9076V352.495H74V353.511H76.9076V356H78.0924V353.511H81V352.495Z" fill="white"/>
<path d="M149 351.495H146.092V349H144.908V351.495H142V352.511H144.908V355H146.092V352.511H149V351.495Z" fill="white"/>
<path d="M246 406.495H243.092V404H241.908V406.495H239V407.511H241.908V410H243.092V407.511H246V406.495Z" fill="white"/>
<path d="M381 78.247H379.753V77H379.247V78.247H378V78.753H379.247V80H379.753V78.753H381V78.247Z" fill="white"/>
<path d="M453 264.247H451.753V263H451.247V264.247H450V264.753H451.247V266H451.753V264.753H453V264.247Z" fill="white"/>
<path d="M31 311.247H29.753V310H29.247V311.247H28V311.753H29.247V313H29.753V311.753H31V311.247Z" fill="white"/>
<path d="M82 412.247H80.753V411H80.247V412.247H79V412.753H80.247V414H80.753V412.753H82V412.247Z" fill="white"/>
<path d="M241 92.247H239.753V91H239.247V92.247H238V92.753H239.247V94H239.753V92.753H241V92.247Z" fill="white"/>
<path d="M166 270.247H164.753V269H164.247V270.247H163V270.753H164.247V272H164.753V270.753H166V270.247Z" fill="white"/>
<path d="M182 219.247H180.753V218H180.247V219.247H179V219.753H180.247V221H180.753V219.753H182V219.247Z" fill="white"/>
<g opacity="0.7">
<circle cx="435.087" cy="330.796" r="6.72" fill="url(#paint1_linear_0:1577)"/>
</g>
<circle opacity="0.2" cx="435.5" cy="330.5" r="6.5" fill="black"/>
<circle opacity="0.2" cx="452" cy="375" r="7" fill="black"/>
<g opacity="0.7">
<path d="M387.982 182.833C388.031 167.908 384.461 153.195 377.578 139.958C374.315 133.741 371.336 129.882 369.041 127.506C367.244 125.604 364.436 125.063 362.062 126.16C361.136 126.489 360.3 127.029 359.618 127.738C356.521 130.954 353.721 135.206 351.295 139.725C344.059 153.278 340.306 168.423 340.374 183.792V193.01H334.471V85.8159C334.471 63.354 329.453 41.1959 319.609 21.5448C314.948 12.2313 310.691 6.44319 307.427 2.88812C305.824 1.05779 303.512 0.0083313 301.081 0.0083313C298.65 0.0083313 296.337 1.05779 294.735 2.88812C290.311 7.70562 286.316 14.0774 282.845 20.8481C272.506 40.9279 267.257 63.7232 267.257 86.8401V192.968H262.156V183.303C262.221 167.944 258.467 152.81 251.235 139.267C248.791 134.747 245.991 130.495 242.912 127.28C241.076 125.326 238.183 124.8 235.778 125.982L235.992 126.095C235.245 126.428 234.569 126.901 234 127.488C231.711 129.87 228.733 133.723 225.469 139.94C218.587 153.177 215.016 167.89 215.065 182.815V343.001H233.281L231.272 356.168V395.547H246.17V356.168L244.178 342.996H262.132V197.101H267.233V342.364H281.78L279.694 356.168V395.547H294.592V356.168L292.505 342.346H312.124L310.025 356.168V395.547H324.923V356.168L322.837 342.346H334.453V197.119H340.357V343.234H345.142V343.013H360.968L358.982 356.168V395.547H373.881V356.168L371.889 342.996H387.982V182.833Z" fill="url(#paint2_linear_0:1577)"/>
</g>
<path d="M249 348H235L237.501 331H246.499L249 348Z" fill="#535461"/>
<g opacity="0.1">
<path d="M237.423 337.933H247.618L246.935 333.461H238.106L237.423 337.933Z" fill="black"/>
</g>
<path d="M370 348H356L358.497 331H367.503L370 348Z" fill="#535461"/>
<g opacity="0.1">
<path d="M358.049 337.933H368.817L368.096 333.461H358.77L358.049 337.933Z" fill="black"/>
</g>
<path d="M295 348H281L283.497 331H292.503L295 348Z" fill="#535461"/>
<g opacity="0.1">
<path d="M283.481 337.933H293.682L292.998 333.461H284.164L283.481 337.933Z" fill="black"/>
</g>
<path d="M324 348H310L312.497 331H321.497L324 348Z" fill="#535461"/>
<g opacity="0.1">
<path d="M312.079 337.933H322.847L322.12 333.461H312.801L312.079 337.933Z" fill="black"/>
</g>
<rect x="249" y="189" width="101" height="4" fill="#535461"/>
<path d="M365.898 125.873C364.812 124.68 363.269 124 361.65 124C360.032 124 358.489 124.68 357.402 125.873C354.444 129.009 351.769 133.152 349.435 137.558C342.512 150.817 338.931 165.548 339.001 180.485V336H383.999V179.829C384.056 165.305 380.649 150.975 374.058 138.011C370.932 131.954 368.088 128.162 365.898 125.873Z" fill="#E0E0E0"/>
<path d="M238.096 125.873C239.182 124.68 240.725 124 242.344 124C243.962 124 245.506 124.68 246.592 125.873C249.556 129.009 252.226 133.152 254.565 137.558C261.486 150.818 265.066 165.548 264.999 180.485V336H220.001V179.829C219.944 165.305 223.351 150.975 229.942 138.011C233.062 131.954 235.906 128.162 238.096 125.873Z" fill="#E0E0E0"/>
<path d="M220 183L231 183.053V196H220V183Z" fill="#535461"/>
<path d="M254 183L265 183.053V196H254V183Z" fill="#535461"/>
<path d="M339 183L350 183.053V196H339V183Z" fill="#535461"/>
<path d="M373 183L384 183.053V196H373V183Z" fill="#535461"/>
<g opacity="0.1">
<path d="M254.376 136.973C252.018 132.585 249.327 128.457 246.34 125.334C244.607 123.446 241.803 122.928 239.49 124.069C240.138 124.387 240.724 124.815 241.219 125.334C244.2 128.457 246.897 132.585 249.249 136.973C256.226 150.179 259.835 164.851 259.764 179.729V334.614H264.891V179.735C264.96 164.856 261.352 150.182 254.376 136.973Z" fill="black"/>
</g>
<g opacity="0.1">
<path d="M354.113 137.807C356.429 133.418 359.083 129.291 362.018 126.168C362.567 125.576 363.231 125.103 363.97 124.778C361.733 123.801 359.12 124.361 357.482 126.168C354.542 129.291 351.887 133.418 349.571 137.807C342.706 151.014 339.154 165.685 339.22 180.563V335.471H343.762V180.575C343.691 165.693 347.243 151.016 354.113 137.807Z" fill="black"/>
</g>
<path d="M242.192 386H241.808C238.048 386 235 382.951 235 379.191V348H249V379.191C249 380.997 248.283 382.729 247.006 384.006C245.729 385.283 243.997 386 242.192 386Z" fill="url(#paint3_linear_0:1577)"/>
<path d="M288.195 386H287.805C284.046 385.997 281 382.949 281 379.191V348H295V379.191C295 382.949 291.954 385.997 288.195 386Z" fill="url(#paint4_linear_0:1577)"/>
<path d="M317.189 386H316.793C313.039 385.99 310 382.944 310 379.191V348H324V379.191C324 382.951 320.951 386 317.189 386Z" fill="url(#paint5_linear_0:1577)"/>
<path d="M363.195 386H362.823C361.014 386.003 359.279 385.287 357.999 384.01C356.719 382.732 356 380.999 356 379.191V348H370V379.191C370 382.949 366.954 385.997 363.195 386Z" fill="url(#paint6_linear_0:1577)"/>
<path d="M307.298 3.80442C305.798 2.02652 303.586 1 301.254 1C298.923 1 296.71 2.02652 295.21 3.80442C291.023 8.49919 287.195 14.7013 283.846 21.3026C274 40.8681 269 63.0788 269 85.5994V335H333V84.5985C333 62.7154 328.215 41.1064 318.86 21.9818C314.464 12.908 310.415 7.26592 307.298 3.80442Z" fill="#EEEEEE"/>
<rect x="284" y="32" width="33" height="15" rx="7.5" fill="#535461"/>
<g opacity="0.1">
<rect x="269.287" y="94.21" width="63.348" height="2.466" fill="black"/>
</g>
<path d="M442.855 185.115C441.196 182.938 439.121 181.111 436.751 179.741C429.285 175.438 419.924 176.26 413.324 181.798C406.723 187.337 404.29 196.411 407.236 204.507C410.182 212.603 417.877 217.995 426.494 218C426.931 218 427.367 218 427.791 217.952C435.32 217.477 441.98 212.907 445.129 206.053C448.278 199.199 447.407 191.171 442.861 185.151L442.855 185.115Z" fill="url(#paint7_linear_0:1577)"/>
<path opacity="0.2" d="M446 197.506C445.998 207.793 438.005 216.308 427.741 216.958C427.338 216.958 426.924 217 426.509 217C418.31 217.005 410.984 211.878 408.178 204.173C405.372 196.467 407.687 187.829 413.969 182.559C420.252 177.289 429.16 176.514 436.258 180.619C438.515 181.929 440.488 183.678 442.06 185.762C444.621 189.141 446.005 193.266 446 197.506Z" fill="black"/>
<path opacity="0.1" d="M421.705 185.202C420.713 185.639 419.756 186.155 418.843 186.746C418.234 187.087 417.71 187.568 417.312 188.151C416.909 188.751 416.895 189.54 417.277 190.155C417.744 190.809 418.642 190.906 419.435 190.955C420.266 191.063 421.111 190.976 421.906 190.7C422.442 190.429 422.929 190.066 423.348 189.628L424.997 188.096C425.588 187.563 426.179 186.831 425.949 186.08C425.672 185.535 425.145 185.17 424.548 185.111C423.126 184.827 421.652 185.092 420.41 185.856" fill="black"/>
<g opacity="0.1">
<circle cx="415" cy="204.91" r="0.855" fill="black"/>
</g>
<g opacity="0.1">
<ellipse cx="435.135" cy="199" rx="3.85231" ry="3.57714" fill="black"/>
</g>
<g opacity="0.1">
<path d="M441.749 185.781C441.718 188.566 439.506 190.836 436.723 190.938C433.94 191.041 431.567 188.94 431.331 186.165C431.095 183.39 433.079 180.919 435.84 180.55C438.139 181.882 440.148 183.661 441.749 185.781Z" fill="black"/>
</g>
<g opacity="0.1">
<path d="M441.521 208.255C438.259 213.174 433.062 216.254 427.398 216.627C427.398 216.352 427.363 216.077 427.363 215.796C427.367 212.247 429.257 209.003 432.25 207.408C435.244 205.814 438.83 206.141 441.521 208.255Z" fill="black"/>
</g>
<path d="M179.122 295.812C177.954 294.265 176.489 292.967 174.814 291.994C169.542 288.897 162.896 289.447 158.204 293.368C153.511 297.289 151.783 303.736 153.883 309.482C155.983 315.229 161.46 319.037 167.572 319C167.879 319 168.175 319 168.489 318.97C173.786 318.613 178.463 315.383 180.679 310.553C182.894 305.723 182.292 300.066 179.11 295.812H179.122Z" fill="url(#paint8_linear_0:1577)"/>
<path opacity="0.2" d="M181 304.53C180.998 311.654 175.462 317.55 168.351 318C168.071 318 167.755 318 167.499 318C161.824 317.999 156.755 314.449 154.815 309.116C152.874 303.784 154.475 297.807 158.822 294.159C163.169 290.511 169.334 289.971 174.249 292.807C175.815 293.718 177.182 294.935 178.269 296.385C180.047 298.727 181.006 301.589 181 304.53Z" fill="black"/>
<path opacity="0.1" d="M164.113 295.138C163.454 295.426 162.818 295.769 162.213 296.162C161.809 296.393 161.46 296.714 161.192 297.1C160.936 297.507 160.936 298.03 161.192 298.437C161.571 298.82 162.094 299.015 162.624 298.969C163.179 299.042 163.742 298.985 164.271 298.801C164.63 298.619 164.956 298.377 165.236 298.084L166.33 297.065C166.713 296.706 167.13 296.22 166.961 295.722C166.786 295.352 166.431 295.105 166.031 295.074C165.087 294.884 164.108 295.062 163.284 295.572" fill="black"/>
<g opacity="0.1">
<circle cx="158.965" cy="308.97" r="0.595" fill="black"/>
</g>
<g opacity="0.1">
<ellipse cx="174.096" cy="304.444" rx="2.622" ry="2.42778" fill="black"/>
</g>
<g opacity="0.1">
<path d="M177.822 295.92C177.806 297.895 176.238 299.509 174.264 299.581C172.29 299.653 170.609 298.159 170.449 296.19C170.289 294.221 171.708 292.475 173.668 292.228C175.286 293.167 176.699 294.423 177.822 295.92Z" fill="black"/>
</g>
<g opacity="0.1">
<path d="M178.481 311.871C176.069 315.327 172.229 317.491 168.043 317.754C168.043 317.563 168.043 317.366 168.043 317.138C168.045 314.645 169.442 312.366 171.654 311.245C173.866 310.125 176.516 310.355 178.505 311.84L178.481 311.871Z" fill="black"/>
</g>
<defs>
<linearGradient id="paint0_linear_0:1577" x1="162.563" y1="414.478" x2="162.563" y2="398.305" gradientUnits="userSpaceOnUse">
<stop stop-color="#808080" stop-opacity="0.25"/>
<stop offset="0.54" stop-color="#808080" stop-opacity="0.12"/>
<stop offset="1" stop-color="#808080" stop-opacity="0.1"/>
</linearGradient>
<linearGradient id="paint1_linear_0:1577" x1="441.805" y1="337.51" x2="441.805" y2="324.076" gradientUnits="userSpaceOnUse">
<stop stop-color="#808080" stop-opacity="0.25"/>
<stop offset="0.54" stop-color="#808080" stop-opacity="0.12"/>
<stop offset="1" stop-color="#808080" stop-opacity="0.1"/>
</linearGradient>
<linearGradient id="paint2_linear_0:1577" x1="387.977" y1="395.565" x2="387.977" y2="8.43128e-06" gradientUnits="userSpaceOnUse">
<stop stop-color="#808080" stop-opacity="0.25"/>
<stop offset="0.54" stop-color="#808080" stop-opacity="0.12"/>
<stop offset="1" stop-color="#808080" stop-opacity="0.1"/>
</linearGradient>
<linearGradient id="paint3_linear_0:1577" x1="235.003" y1="348" x2="235.003" y2="386" gradientUnits="userSpaceOnUse">
<stop stop-color="#E0E0E0"/>
<stop offset="0.31" stop-color="#FCCC63"/>
<stop offset="0.77" stop-color="#F55F44"/>
</linearGradient>
<linearGradient id="paint4_linear_0:1577" x1="281" y1="348" x2="281" y2="386" gradientUnits="userSpaceOnUse">
<stop stop-color="#E0E0E0"/>
<stop offset="0.31" stop-color="#FCCC63"/>
<stop offset="0.77" stop-color="#F55F44"/>
</linearGradient>
<linearGradient id="paint5_linear_0:1577" x1="310" y1="348" x2="310" y2="386" gradientUnits="userSpaceOnUse">
<stop stop-color="#E0E0E0"/>
<stop offset="0.31" stop-color="#FCCC63"/>
<stop offset="0.77" stop-color="#F55F44"/>
</linearGradient>
<linearGradient id="paint6_linear_0:1577" x1="356" y1="348" x2="356" y2="386" gradientUnits="userSpaceOnUse">
<stop stop-color="#E0E0E0"/>
<stop offset="0.31" stop-color="#FCCC63"/>
<stop offset="0.77" stop-color="#F55F44"/>
</linearGradient>
<linearGradient id="paint7_linear_0:1577" x1="446.988" y1="217.964" x2="446.988" y2="176.964" gradientUnits="userSpaceOnUse">
<stop stop-color="#808080" stop-opacity="0.25"/>
<stop offset="0.54" stop-color="#808080" stop-opacity="0.12"/>
<stop offset="1" stop-color="#808080" stop-opacity="0.1"/>
</linearGradient>
<linearGradient id="paint8_linear_0:1577" x1="182.057" y1="319" x2="182.057" y2="290.054" gradientUnits="userSpaceOnUse">
<stop stop-color="#808080" stop-opacity="0.25"/>
<stop offset="0.54" stop-color="#808080" stop-opacity="0.12"/>
<stop offset="1" stop-color="#808080" stop-opacity="0.1"/>
</linearGradient>
</defs>
</svg>
